<?xml version="1.0" standalone="no"?><!DOCTYPE svg PUBLIC "-//W3C//DTD SVG 1.1//EN" "http://www.w3.org/Graphics/SVG/1.1/DTD/svg11.dtd"><svg t="1723352122110" class="icon" viewBox="0 0 1024 1024" version="1.1" xmlns="http://www.w3.org/2000/svg" p-id="31540" width="128" height="128" xmlns:xlink="http://www.w3.org/1999/xlink"><path d="M714.96704 207.80032c44.18048 25.24672 44.18048 31.55968 12.62592 63.11424-69.4272 63.11424-138.8544 119.92064-208.28672 183.04a87.12704 87.12704 0 0 1-25.24672 18.944l-6.31296-6.31296c75.74016-88.3712 151.48032-170.4192 227.22048-258.78528z m-138.8544 328.192l208.28672-94.67904c18.944-6.31296 25.24672 0 25.24672 12.62592s0 31.55968-6.31296 31.55968a1420.65664 1420.65664 0 0 1-220.90752 56.8064c0 6.31296 0 0-6.31296-6.31296z m-138.8544-126.2336c0-25.24672 6.31296-44.18048 6.31296-69.4272 6.31296-44.18048 12.6208-94.67392 18.944-138.8544 0-25.24672 12.6208-25.24672 31.55968-18.944 18.944 0 25.24672 6.31296 18.944 25.24672-25.24672 69.4272-44.18048 138.8544-63.11424 201.97376z m347.136-309.248c25.24672 6.31296 44.18048 6.31296 69.4272 6.31296 0 18.944 6.31296 44.18048 12.6208 69.4272-18.944 6.31296-37.888 18.944-63.11424 31.55968-12.6208-18.944-31.55968-31.55968-50.49344-50.49344a568.92928 568.92928 0 0 1 31.5648-56.81664z" fill="#37CCCC" p-id="31541"></path><path d="M399.3856 283.5456c-12.6208 12.6208-18.944 18.944-25.24672 18.944s-18.944-12.6208-18.944-18.944 12.62592-18.944 18.944-18.944 12.62592 12.63104 25.24672 18.944z" fill="#F4A506" p-id="31542"></path><path d="M554.16832 739.46624h-1.792l-350.41792 19.65568a30.75072 30.75072 0 0 1-30.43328-41.73824l19.92704-51.86048a37.1712 37.1712 0 0 1 33.9968-23.8336l257.63328-4.84864a36.89472 36.89472 0 0 1 26.78784 10.8032l60.80512 60.81536a16.384 16.384 0 0 1-5.7344 26.89024z" fill="#049999" p-id="31543"></path><path d="M363.59168 579.2512l-110.592 2.048a19.89632 19.89632 0 0 1-18.944-27.01824l39.20384-102.13376a20.7872 20.7872 0 0 1 34.11456-7.2448L386.048 523.63776a32.57856 32.57856 0 0 1-22.45632 55.61344z" fill="#049999" p-id="31544"></path><path d="M140.27264 822.27712l107.66336-6.02624a19.456 19.456 0 0 1 8.04352 37.53472l-130.56 50.05824a14.26944 14.26944 0 0 1-18.432-18.432l20.77184-54.03136a14.27968 14.27968 0 0 1 12.51328-9.10336z" fill="#049999" p-id="31545"></path><path d="M622.8992 670.04416L310.31296 357.43744a55.68 55.68 0 0 0-91.35104 19.42528l-194.65728 507.2384a55.68 55.68 0 0 0 71.92576 71.93088l507.24864-194.62656a55.67488 55.67488 0 0 0 19.42016-91.36128z m-401.08032-134.07744l39.1936-102.14912a20.79232 20.79232 0 0 1 34.10432-7.26016L373.79072 505.2928a32.57856 32.57856 0 0 1-22.43072 55.59808l-110.592 2.048a19.89632 19.89632 0 0 1-18.94912-26.97216z m21.93408 299.48416l-130.56 50.05824a14.26944 14.26944 0 0 1-18.432-18.432l20.75648-53.9904a14.27968 14.27968 0 0 1 12.5184-9.12384l107.65824-6.02624a19.456 19.456 0 0 1 8.05376 37.51424z m308.9664-118.43584l-10.752 4.096h-1.792l-350.4128 19.65568a30.75072 30.75072 0 0 1-30.43328-41.73824l19.92704-51.86048a37.1712 37.1712 0 0 1 33.9968-23.8336l257.63328-4.84864a36.89472 36.89472 0 0 1 26.78784 10.8032l60.81024 60.81536a16.384 16.384 0 0 1-5.77024 26.91072z" fill="#37CCCC" p-id="31546"></path><path d="M1002.99776 352.23552c-11.29984-6.93248-14.02368-7.86944-21.84704 1.60256a91.1616 91.1616 0 0 1-9.63584 10.34752c-0.38912-7.71072-0.3328-12.28288-1.15712-18.65216 0.512-5.90336-3.56352-7.30624-7.64416-8.71424-5.43744-1.8688-8.6272-1.44896-11.8528 3.50208a83.74272 83.74272 0 0 0-11.9296 12.62592c-0.384-7.71584-1.22368-14.11072-1.15712-18.65216 0.512-5.90848-3.56352-7.31136-9.0112-9.18528a9.63072 9.63072 0 0 0-11.38688 2.16064 140.41088 140.41088 0 0 1-11.9296 12.62592 99.20512 99.20512 0 0 1-0.75264-15.47264c1.87392-5.43232-1.7408-8.18176-7.18336-10.05056a9.57952 9.57952 0 0 0-11.84768 3.49696 99.10272 99.10272 0 0 1-10.24 11.74016 84.26496 84.26496 0 0 1-1.6896-12.7488c-0.3328-12.288-3.05664-13.22496-16.2304-14.72l-0.13312 13.6448 1.13152 23.20896c0.384 7.7312 3.52768 11.85792 10.79296 12.84096a30.04928 30.04928 0 0 0 10.02496-2.6112 168.77056 168.77056 0 0 0 11.9296-12.6208c0.384 7.71584 0.3328 12.28288 0.28672 16.82944-0.95744 7.25504 4.95616 7.76704 9.04704 9.17504s8.15616 2.81088 11.38688-2.16064a140.04224 140.04224 0 0 1 11.9296-12.62592 150.528 150.528 0 0 1 1.15712 18.65728c-0.47616 5.9136 3.61984 7.3216 7.68 8.72448s8.15616 2.80576 11.38688-2.16064a40.96 40.96 0 0 1 11.0592-14.44864c-0.512 5.90848 0.80384 10.92608 0.28672 16.82944a7.6032 7.6032 0 0 0 7.64928 8.71936c4.08064 1.40288 9.51808 3.2768 12.7488-1.6896 9.6512-10.368 17.47456-19.84 27.12576-30.19264z" fill="#F8A806" p-id="31547"></path><path d="M863.4624 342.2208c-0.3584-12.288-1.13152-23.20384-1.04448-32.3072 6.77888 2.33472 8.87296 22.83008 1.04448 32.3072z" fill="#FFFFFF" opacity=".345" p-id="31548"></path><path d="M961.64352 348.6464c1.36192 0.47104 1.36192 0.47104 3.18976-0.41984 3.51744 11.85792 1.60256 21.84192-4.37248 25.87136a221.80352 221.80352 0 0 1 1.18272-25.4464z" fill="#FFFFFF" opacity=".345" p-id="31549"></path><path d="M899.5584 325.74976c3.51744 11.85792 2.95936 22.31296-2.9952 26.34752 0.09216-9.09312-4.36736-18.23744 2.9952-26.34752z" fill="#FFFFFF" opacity=".345" p-id="31550"></path><path d="M929.67424 361.97376c-0.38912-7.71584-4.8384-16.87552 2.51904-24.9856-0.09216 9.088 4.36736 18.2272-2.51904 24.9856z" fill="#FFFFFF" opacity=".345" p-id="31551"></path><path d="M866.45248 477.56288c6.31296-6.31296 18.944-12.62592 25.24672-18.944 6.31296 6.31296 18.944 12.6208 31.55968 18.944-6.31296 12.6208-6.31296 18.944-12.6208 31.55968h-31.55968a48.20992 48.20992 0 0 1-12.62592-31.55968z" fill="#37CCCC" p-id="31552"></path><path d="M752.83968 561.26464c6.31296-6.31296 18.944-6.31296 25.24672-12.6208a87.12704 87.12704 0 0 1 18.944 25.24672c-6.31296 6.31296-6.31296 18.944-12.6208 25.24672-25.24672 6.31296-37.888-6.31296-31.55968-37.888z" fill="#F4A506" p-id="31553"></path><path d="M449.87904 138.37312c-12.6208 0-25.24672-6.31296-31.55968-6.31296v-37.888c12.6208-6.31296 25.24672-6.31296 31.55968-12.6208a33.82272 33.82272 0 0 0 18.944 25.24672c-6.31808 12.65664-12.63104 18.94912-18.944 31.57504z" fill="#37CCCC" p-id="31554"></path><path d="M645.54496 87.87968c-12.62592 12.6208-25.24672 18.944-31.55968 31.55968l6.31296 6.31296c-12.62592-6.31296-31.55968-12.6208-44.18048-18.944 0-12.6208 6.31296-25.24672 6.31296-44.18048 12.6208 0 31.55968-6.31296 44.18048-6.31296 6.30784 12.62592 12.6208 25.25184 18.93376 31.5648z" fill="#F4A506" p-id="31555"></path></svg>